<?xml version="1.0" ?>
<svg width="2480" height="3508" xmlns="http://www.w3.org/2000/svg" xmlns:xlink="http://www.w3.org/1999/xlink" >
  <g transform="translate(124,175.4) " >
    <rect x="0" y="0" width="446.4" height="451.0285714285714" style="stroke-width:5;stroke:black;fill:none;" />
    <image x="1" y="1" width="444.4" height="449.0285714285714" xlink:href="../t_bases/F-Purple.png" />
    <image x="0" y="0" width="446.4" height="451.0285714285714" xlink:href="../t_bases/Pipe-Corner.png" />
  </g>
  <g transform="translate(570.4,175.4) " >
    <rect x="0" y="0" width="446.4" height="451.0285714285714" style="stroke-width:5;stroke:black;fill:none;" />
    <image x="1" y="1" width="444.4" height="449.0285714285714" xlink:href="../t_bases/F-Red.png" />
    <image x="0" y="0" width="446.4" height="451.0285714285714" xlink:href="../t_bases/Pipe-Corner.png" />
  </g>
  <g transform="translate(1016.8,175.4) " >
    <rect x="0" y="0" width="446.4" height="451.0285714285714" style="stroke-width:5;stroke:black;fill:none;" />
    <image x="1" y="1" width="444.4" height="449.0285714285714" xlink:href="../t_bases/F-Yellow.png" />
    <image x="0" y="0" width="446.4" height="451.0285714285714" xlink:href="../t_bases/Pipe-Corner.png" />
  </g>
  <g transform="translate(1463.1999999999998,175.4) " >
    <rect x="0" y="0" width="446.4" height="451.0285714285714" style="stroke-width:5;stroke:black;fill:none;" />
    <image x="1" y="1" width="444.4" height="449.0285714285714" xlink:href="../t_bases/F-Green.png" />
    <image x="0" y="0" width="446.4" height="451.0285714285714" xlink:href="../t_bases/Pipe-Line.png" />
  </g>
  <g transform="translate(1909.6,175.4) " >
    <rect x="0" y="0" width="446.4" height="451.0285714285714" style="stroke-width:5;stroke:black;fill:none;" />
    <image x="1" y="1" width="444.4" height="449.0285714285714" xlink:href="../t_bases/F-Orange.png" />
    <image x="0" y="0" width="446.4" height="451.0285714285714" xlink:href="../t_bases/Pipe-Line.png" />
  </g>
  <g transform="translate(124,626.4285714285714) " >
    <rect x="0" y="0" width="446.4" height="451.0285714285714" style="stroke-width:5;stroke:black;fill:none;" />
    <image x="1" y="1" width="444.4" height="449.0285714285714" xlink:href="../t_bases/F-Pink.png" />
    <image x="0" y="0" width="446.4" height="451.0285714285714" xlink:href="../t_bases/Pipe-Line.png" />
  </g>
  <g transform="translate(570.4,626.4285714285714) " >
    <rect x="0" y="0" width="446.4" height="451.0285714285714" style="stroke-width:5;stroke:black;fill:none;" />
    <image x="1" y="1" width="444.4" height="449.0285714285714" xlink:href="../t_bases/F-Purple.png" />
    <image x="0" y="0" width="446.4" height="451.0285714285714" xlink:href="../t_bases/Pipe-Line.png" />
  </g>
  <g transform="translate(1016.8,626.4285714285714) " >
    <rect x="0" y="0" width="446.4" height="451.0285714285714" style="stroke-width:5;stroke:black;fill:none;" />
    <image x="1" y="1" width="444.4" height="449.0285714285714" xlink:href="../t_bases/F-Red.png" />
    <image x="0" y="0" width="446.4" height="451.0285714285714" xlink:href="../t_bases/Pipe-Line.png" />
  </g>
  <g transform="translate(1463.1999999999998,626.4285714285714) " >
    <rect x="0" y="0" width="446.4" height="451.0285714285714" style="stroke-width:5;stroke:black;fill:none;" />
    <image x="1" y="1" width="444.4" height="449.0285714285714" xlink:href="../t_bases/F-Yellow.png" />
    <image x="0" y="0" width="446.4" height="451.0285714285714" xlink:href="../t_bases/Pipe-Line.png" />
  </g>
  <g transform="translate(1909.6,626.4285714285714) " >
    <rect x="0" y="0" width="446.4" height="451.0285714285714" style="stroke-width:5;stroke:black;fill:none;" />
    <image x="1" y="1" width="444.4" height="449.0285714285714" xlink:href="../t_bases/F-Green.png" />
    <image x="0" y="0" width="446.4" height="451.0285714285714" xlink:href="../t_bases/Pipe-T.png" />
  </g>
  <g transform="translate(124,1077.4571428571428) " >
    <rect x="0" y="0" width="446.4" height="451.0285714285714" style="stroke-width:5;stroke:black;fill:none;" />
    <image x="1" y="1" width="444.4" height="449.0285714285714" xlink:href="../t_bases/F-Orange.png" />
    <image x="0" y="0" width="446.4" height="451.0285714285714" xlink:href="../t_bases/Pipe-T.png" />
  </g>
  <g transform="translate(570.4,1077.4571428571428) " >
    <rect x="0" y="0" width="446.4" height="451.0285714285714" style="stroke-width:5;stroke:black;fill:none;" />
    <image x="1" y="1" width="444.4" height="449.0285714285714" xlink:href="../t_bases/F-Pink.png" />
    <image x="0" y="0" width="446.4" height="451.0285714285714" xlink:href="../t_bases/Pipe-T.png" />
  </g>
  <g transform="translate(1016.8,1077.4571428571428) " >
    <rect x="0" y="0" width="446.4" height="451.0285714285714" style="stroke-width:5;stroke:black;fill:none;" />
    <image x="1" y="1" width="444.4" height="449.0285714285714" xlink:href="../t_bases/F-Purple.png" />
    <image x="0" y="0" width="446.4" height="451.0285714285714" xlink:href="../t_bases/Pipe-T.png" />
  </g>
  <g transform="translate(1463.1999999999998,1077.4571428571428) " >
    <rect x="0" y="0" width="446.4" height="451.0285714285714" style="stroke-width:5;stroke:black;fill:none;" />
    <image x="1" y="1" width="444.4" height="449.0285714285714" xlink:href="../t_bases/F-Red.png" />
    <image x="0" y="0" width="446.4" height="451.0285714285714" xlink:href="../t_bases/Pipe-T.png" />
  </g>
  <g transform="translate(1909.6,1077.4571428571428) " >
    <rect x="0" y="0" width="446.4" height="451.0285714285714" style="stroke-width:5;stroke:black;fill:none;" />
    <image x="1" y="1" width="444.4" height="449.0285714285714" xlink:href="../t_bases/F-Yellow.png" />
    <image x="0" y="0" width="446.4" height="451.0285714285714" xlink:href="../t_bases/Pipe-T.png" />
  </g>
  <g transform="translate(124,1528.4857142857143) " >
    <rect x="0" y="0" width="446.4" height="451.0285714285714" style="stroke-width:5;stroke:black;fill:none;" />
    <image x="1" y="1" width="444.4" height="449.0285714285714" xlink:href="../t_bases/F-Green.png" />
    <image x="0" y="0" width="446.4" height="451.0285714285714" xlink:href="../t_bases/Pipe-Corner.png" />
  </g>
  <g transform="translate(570.4,1528.4857142857143) " >
    <rect x="0" y="0" width="446.4" height="451.0285714285714" style="stroke-width:5;stroke:black;fill:none;" />
    <image x="1" y="1" width="444.4" height="449.0285714285714" xlink:href="../t_bases/F-Orange.png" />
    <image x="0" y="0" width="446.4" height="451.0285714285714" xlink:href="../t_bases/Pipe-Corner.png" />
  </g>
  <g transform="translate(1016.8,1528.4857142857143) " >
    <rect x="0" y="0" width="446.4" height="451.0285714285714" style="stroke-width:5;stroke:black;fill:none;" />
    <image x="1" y="1" width="444.4" height="449.0285714285714" xlink:href="../t_bases/F-Pink.png" />
    <image x="0" y="0" width="446.4" height="451.0285714285714" xlink:href="../t_bases/Pipe-Corner.png" />
  </g>
  <g transform="translate(1463.1999999999998,1528.4857142857143) " >
    <rect x="0" y="0" width="446.4" height="451.0285714285714" style="stroke-width:5;stroke:black;fill:none;" />
    <image x="1" y="1" width="444.4" height="449.0285714285714" xlink:href="../t_bases/F-Purple.png" />
    <image x="0" y="0" width="446.4" height="451.0285714285714" xlink:href="../t_bases/Pipe-Corner.png" />
  </g>
  <g transform="translate(1909.6,1528.4857142857143) " >
    <rect x="0" y="0" width="446.4" height="451.0285714285714" style="stroke-width:5;stroke:black;fill:none;" />
    <image x="1" y="1" width="444.4" height="449.0285714285714" xlink:href="../t_bases/F-Red.png" />
    <image x="0" y="0" width="446.4" height="451.0285714285714" xlink:href="../t_bases/Pipe-Corner.png" />
  </g>
  <g transform="translate(124,1979.5142857142857) " >
    <rect x="0" y="0" width="446.4" height="451.0285714285714" style="stroke-width:5;stroke:black;fill:none;" />
    <image x="1" y="1" width="444.4" height="449.0285714285714" xlink:href="../t_bases/F-Yellow.png" />
    <image x="0" y="0" width="446.4" height="451.0285714285714" xlink:href="../t_bases/Pipe-Corner.png" />
  </g>
  <g transform="translate(570.4,1979.5142857142857) " >
    <rect x="0" y="0" width="446.4" height="451.0285714285714" style="stroke-width:5;stroke:black;fill:none;" />
    <image x="1" y="1" width="444.4" height="449.0285714285714" xlink:href="../t_bases/F-Green.png" />
    <image x="0" y="0" width="446.4" height="451.0285714285714" xlink:href="../t_bases/Pipe-Line.png" />
  </g>
  <g transform="translate(1016.8,1979.5142857142857) " >
    <rect x="0" y="0" width="446.4" height="451.0285714285714" style="stroke-width:5;stroke:black;fill:none;" />
    <image x="1" y="1" width="444.4" height="449.0285714285714" xlink:href="../t_bases/F-Orange.png" />
    <image x="0" y="0" width="446.4" height="451.0285714285714" xlink:href="../t_bases/Pipe-Line.png" />
  </g>
  <g transform="translate(1463.1999999999998,1979.5142857142857) " >
    <rect x="0" y="0" width="446.4" height="451.0285714285714" style="stroke-width:5;stroke:black;fill:none;" />
    <image x="1" y="1" width="444.4" height="449.0285714285714" xlink:href="../t_bases/F-Pink.png" />
    <image x="0" y="0" width="446.4" height="451.0285714285714" xlink:href="../t_bases/Pipe-Line.png" />
  </g>
  <g transform="translate(1909.6,1979.5142857142857) " >
    <rect x="0" y="0" width="446.4" height="451.0285714285714" style="stroke-width:5;stroke:black;fill:none;" />
    <image x="1" y="1" width="444.4" height="449.0285714285714" xlink:href="../t_bases/F-Purple.png" />
    <image x="0" y="0" width="446.4" height="451.0285714285714" xlink:href="../t_bases/Pipe-Line.png" />
  </g>
  <g transform="translate(124,2430.542857142857) " >
    <rect x="0" y="0" width="446.4" height="451.0285714285714" style="stroke-width:5;stroke:black;fill:none;" />
    <image x="1" y="1" width="444.4" height="449.0285714285714" xlink:href="../t_bases/F-Red.png" />
    <image x="0" y="0" width="446.4" height="451.0285714285714" xlink:href="../t_bases/Pipe-Line.png" />
  </g>
  <g transform="translate(570.4,2430.542857142857) " >
    <rect x="0" y="0" width="446.4" height="451.0285714285714" style="stroke-width:5;stroke:black;fill:none;" />
    <image x="1" y="1" width="444.4" height="449.0285714285714" xlink:href="../t_bases/F-Yellow.png" />
    <image x="0" y="0" width="446.4" height="451.0285714285714" xlink:href="../t_bases/Pipe-Line.png" />
  </g>
  <g transform="translate(1016.8,2430.542857142857) " >
    <rect x="0" y="0" width="446.4" height="451.0285714285714" style="stroke-width:5;stroke:black;fill:none;" />
    <image x="1" y="1" width="444.4" height="449.0285714285714" xlink:href="../t_bases/F-Brown.png" />
    <image x="0" y="0" width="446.4" height="451.0285714285714" xlink:href="../t_bases/Pipe-T.png" />
  </g>
  <g transform="translate(1463.1999999999998,2430.542857142857) " >
    <rect x="0" y="0" width="446.4" height="451.0285714285714" style="stroke-width:5;stroke:black;fill:none;" />
    <image x="1" y="1" width="444.4" height="449.0285714285714" xlink:href="../t_bases/F-Brown.png" />
    <image x="0" y="0" width="446.4" height="451.0285714285714" xlink:href="../t_bases/Pipe-T.png" />
  </g>
  <g transform="translate(1909.6,2430.542857142857) " >
    <rect x="0" y="0" width="446.4" height="451.0285714285714" style="stroke-width:5;stroke:black;fill:none;" />
    <image x="1" y="1" width="444.4" height="449.0285714285714" xlink:href="../t_bases/F-Brown.png" />
    <image x="0" y="0" width="446.4" height="451.0285714285714" xlink:href="../t_bases/Pipe-Corner.png" />
  </g>
  <g transform="translate(124,2881.5714285714284) " >
    <rect x="0" y="0" width="446.4" height="451.0285714285714" style="stroke-width:5;stroke:black;fill:none;" />
    <image x="1" y="1" width="444.4" height="449.0285714285714" xlink:href="../t_bases/F-Brown.png" />
    <image x="0" y="0" width="446.4" height="451.0285714285714" xlink:href="../t_bases/Pipe-Corner.png" />
  </g>
  <g transform="translate(570.4,2881.5714285714284) " >
    <rect x="0" y="0" width="446.4" height="451.0285714285714" style="stroke-width:5;stroke:black;fill:none;" />
    <image x="1" y="1" width="444.4" height="449.0285714285714" xlink:href="../t_bases/F-Brown.png" />
    <image x="0" y="0" width="446.4" height="451.0285714285714" xlink:href="../t_bases/Pipe-Line.png" />
  </g>
  <g transform="translate(1016.8,2881.5714285714284) " >
    <rect x="0" y="0" width="446.4" height="451.0285714285714" style="stroke-width:5;stroke:black;fill:none;" />
    <image x="1" y="1" width="444.4" height="449.0285714285714" xlink:href="../t_bases/F-Brown.png" />
    <image x="0" y="0" width="446.4" height="451.0285714285714" xlink:href="../t_bases/Pipe-Line.png" />
  </g>
  <g transform="translate(1463.1999999999998,2881.5714285714284) " >
    <rect x="0" y="0" width="446.4" height="451.0285714285714" style="stroke-width:5;stroke:black;fill:none;" />
    <image x="1" y="1" width="444.4" height="449.0285714285714" xlink:href="../t_bases/F-Brown.png" />
    <image x="0" y="0" width="446.4" height="451.0285714285714" xlink:href="../t_bases/Pipe-T.png" />
  </g>
  <g transform="translate(1909.6,2881.5714285714284) " >
    <rect x="0" y="0" width="446.4" height="451.0285714285714" style="stroke-width:5;stroke:black;fill:none;" />
    <image x="1" y="1" width="444.4" height="449.0285714285714" xlink:href="../t_bases/F-Brown.png" />
    <image x="0" y="0" width="446.4" height="451.0285714285714" xlink:href="../t_bases/Pipe-T.png" />
  </g>
</svg>
