<?xml version="1.0" ?>
<svg width="2480" height="3508"
    xmlns="http://www.w3.org/2000/svg"
    xmlns:xlink="http://www.w3.org/1999/xlink">
  <g transform="translate(124,175.4) ">

    <rect x="0" y="0" width="446.4" height="451.0285714285714" style="fill:#ff0000;stroke-width:5;stroke:black;" />
    <image x="0" y="0" width="446.4" height="451.0285714285714" xlink:href="/home/matthew/games/board/irrigate/bases/tee.svg" />
  </g>
  <g transform="translate(570.4,175.4) ">

    <rect x="0" y="0" width="446.4" height="451.0285714285714" style="fill:#00ff00;stroke-width:5;stroke:black;" />
    <image x="0" y="0" width="446.4" height="451.0285714285714" xlink:href="/home/matthew/games/board/irrigate/bases/tee.svg" />
  </g>
  <g transform="translate(1016.8,175.4) ">

    <rect x="0" y="0" width="446.4" height="451.0285714285714" style="fill:#0000ff;stroke-width:5;stroke:black;" />
    <image x="0" y="0" width="446.4" height="451.0285714285714" xlink:href="/home/matthew/games/board/irrigate/bases/tee.svg" />
  </g>
  <g transform="translate(1463.1999999999998,175.4) ">

    <rect x="0" y="0" width="446.4" height="451.0285714285714" style="fill:#00ffff;stroke-width:5;stroke:black;" />
    <image x="0" y="0" width="446.4" height="451.0285714285714" xlink:href="/home/matthew/games/board/irrigate/bases/tee.svg" />
  </g>
  <g transform="translate(1909.6,175.4) ">

    <rect x="0" y="0" width="446.4" height="451.0285714285714" style="fill:#888888;stroke-width:5;stroke:black;" />
    <image x="0" y="0" width="446.4" height="451.0285714285714" xlink:href="/home/matthew/games/board/irrigate/bases/tee.svg" />
    <text x="357.12" y="360.8228571428572"  style="font-size:67.6542857142857;fill:black;stroke:none;">12</text>
  </g>
  <g transform="translate(124,626.4285714285714) ">

    <rect x="0" y="0" width="446.4" height="451.0285714285714" style="fill:#888888;stroke-width:5;stroke:black;" />
    <image x="0" y="0" width="446.4" height="451.0285714285714" xlink:href="/home/matthew/games/board/irrigate/bases/tee.svg" />
    <text x="357.12" y="360.8228571428572"  style="font-size:67.6542857142857;fill:black;stroke:none;">12</text>
  </g>
  <g transform="translate(570.4,626.4285714285714) ">

    <rect x="0" y="0" width="446.4" height="451.0285714285714" style="fill:#ff0000;stroke-width:5;stroke:black;" />
    <image x="0" y="0" width="446.4" height="451.0285714285714" xlink:href="/home/matthew/games/board/irrigate/bases/corner.svg" />
  </g>
  <g transform="translate(1016.8,626.4285714285714) ">

    <rect x="0" y="0" width="446.4" height="451.0285714285714" style="fill:#00ff00;stroke-width:5;stroke:black;" />
    <image x="0" y="0" width="446.4" height="451.0285714285714" xlink:href="/home/matthew/games/board/irrigate/bases/corner.svg" />
  </g>
  <g transform="translate(1463.1999999999998,626.4285714285714) ">

    <rect x="0" y="0" width="446.4" height="451.0285714285714" style="fill:#0000ff;stroke-width:5;stroke:black;" />
    <image x="0" y="0" width="446.4" height="451.0285714285714" xlink:href="/home/matthew/games/board/irrigate/bases/corner.svg" />
  </g>
  <g transform="translate(1909.6,626.4285714285714) ">

    <rect x="0" y="0" width="446.4" height="451.0285714285714" style="fill:#00ffff;stroke-width:5;stroke:black;" />
    <image x="0" y="0" width="446.4" height="451.0285714285714" xlink:href="/home/matthew/games/board/irrigate/bases/corner.svg" />
  </g>
  <g transform="translate(124,1077.4571428571428) ">

    <rect x="0" y="0" width="446.4" height="451.0285714285714" style="fill:#ff0000;stroke-width:5;stroke:black;" />
    <image x="0" y="0" width="446.4" height="451.0285714285714" xlink:href="/home/matthew/games/board/irrigate/bases/straight.svg" />
  </g>
  <g transform="translate(570.4,1077.4571428571428) ">

    <rect x="0" y="0" width="446.4" height="451.0285714285714" style="fill:#00ff00;stroke-width:5;stroke:black;" />
    <image x="0" y="0" width="446.4" height="451.0285714285714" xlink:href="/home/matthew/games/board/irrigate/bases/straight.svg" />
  </g>
  <g transform="translate(1016.8,1077.4571428571428) ">

    <rect x="0" y="0" width="446.4" height="451.0285714285714" style="fill:#0000ff;stroke-width:5;stroke:black;" />
    <image x="0" y="0" width="446.4" height="451.0285714285714" xlink:href="/home/matthew/games/board/irrigate/bases/straight.svg" />
  </g>
  <g transform="translate(1463.1999999999998,1077.4571428571428) ">

    <rect x="0" y="0" width="446.4" height="451.0285714285714" style="fill:#00ffff;stroke-width:5;stroke:black;" />
    <image x="0" y="0" width="446.4" height="451.0285714285714" xlink:href="/home/matthew/games/board/irrigate/bases/straight.svg" />
  </g>
  <g transform="translate(1909.6,1077.4571428571428) ">

    <rect x="0" y="0" width="446.4" height="451.0285714285714" style="fill:#888888;stroke-width:5;stroke:black;" />
    <image x="0" y="0" width="446.4" height="451.0285714285714" xlink:href="/home/matthew/games/board/irrigate/bases/tee.svg" />
    <text x="357.12" y="360.8228571428572"  style="font-size:67.6542857142857;fill:black;stroke:none;">12</text>
  </g>
  <g transform="translate(124,1528.4857142857143) ">

    <rect x="0" y="0" width="446.4" height="451.0285714285714" style="fill:#888888;stroke-width:5;stroke:black;" />
    <image x="0" y="0" width="446.4" height="451.0285714285714" xlink:href="/home/matthew/games/board/irrigate/bases/tee.svg" />
    <text x="357.12" y="360.8228571428572"  style="font-size:67.6542857142857;fill:black;stroke:none;">12</text>
  </g>
  <g transform="translate(570.4,1528.4857142857143) ">

    <rect x="0" y="0" width="446.4" height="451.0285714285714" style="fill:#888888;stroke-width:5;stroke:black;" />
    <image x="0" y="0" width="446.4" height="451.0285714285714" xlink:href="/home/matthew/games/board/irrigate/bases/corner.svg" />
    <text x="357.12" y="360.8228571428572"  style="font-size:67.6542857142857;fill:black;stroke:none;">12</text>
  </g>
  <g transform="translate(1016.8,1528.4857142857143) ">

    <rect x="0" y="0" width="446.4" height="451.0285714285714" style="fill:#888888;stroke-width:5;stroke:black;" />
    <image x="0" y="0" width="446.4" height="451.0285714285714" xlink:href="/home/matthew/games/board/irrigate/bases/corner.svg" />
    <text x="357.12" y="360.8228571428572"  style="font-size:67.6542857142857;fill:black;stroke:none;">12</text>
  </g>
  <g transform="translate(1463.1999999999998,1528.4857142857143) ">

    <rect x="0" y="0" width="446.4" height="451.0285714285714" style="fill:#888888;stroke-width:5;stroke:black;" />
    <image x="0" y="0" width="446.4" height="451.0285714285714" xlink:href="/home/matthew/games/board/irrigate/bases/straight.svg" />
    <text x="357.12" y="360.8228571428572"  style="font-size:67.6542857142857;fill:black;stroke:none;">12</text>
  </g>
  <g transform="translate(1909.6,1528.4857142857143) ">

    <rect x="0" y="0" width="446.4" height="451.0285714285714" style="fill:#888888;stroke-width:5;stroke:black;" />
    <image x="0" y="0" width="446.4" height="451.0285714285714" xlink:href="/home/matthew/games/board/irrigate/bases/straight.svg" />
    <text x="357.12" y="360.8228571428572"  style="font-size:67.6542857142857;fill:black;stroke:none;">12</text>
  </g>
  <g transform="translate(124,1979.5142857142857) ">

    <rect x="0" y="0" width="446.4" height="451.0285714285714" style="fill:#ff0000;stroke-width:5;stroke:black;" />
    <image x="0" y="0" width="446.4" height="451.0285714285714" xlink:href="/home/matthew/games/board/irrigate/bases/tee.svg" />
  </g>
  <g transform="translate(570.4,1979.5142857142857) ">

    <rect x="0" y="0" width="446.4" height="451.0285714285714" style="fill:#00ff00;stroke-width:5;stroke:black;" />
    <image x="0" y="0" width="446.4" height="451.0285714285714" xlink:href="/home/matthew/games/board/irrigate/bases/tee.svg" />
  </g>
  <g transform="translate(1016.8,1979.5142857142857) ">

    <rect x="0" y="0" width="446.4" height="451.0285714285714" style="fill:#0000ff;stroke-width:5;stroke:black;" />
    <image x="0" y="0" width="446.4" height="451.0285714285714" xlink:href="/home/matthew/games/board/irrigate/bases/tee.svg" />
  </g>
  <g transform="translate(1463.1999999999998,1979.5142857142857) ">

    <rect x="0" y="0" width="446.4" height="451.0285714285714" style="fill:#00ffff;stroke-width:5;stroke:black;" />
    <image x="0" y="0" width="446.4" height="451.0285714285714" xlink:href="/home/matthew/games/board/irrigate/bases/tee.svg" />
  </g>
  <g transform="translate(1909.6,1979.5142857142857) ">

    <rect x="0" y="0" width="446.4" height="451.0285714285714" style="fill:#ff0000;stroke-width:5;stroke:black;" />
    <image x="0" y="0" width="446.4" height="451.0285714285714" xlink:href="/home/matthew/games/board/irrigate/bases/corner.svg" />
  </g>
  <g transform="translate(124,2430.542857142857) ">

    <rect x="0" y="0" width="446.4" height="451.0285714285714" style="fill:#00ff00;stroke-width:5;stroke:black;" />
    <image x="0" y="0" width="446.4" height="451.0285714285714" xlink:href="/home/matthew/games/board/irrigate/bases/corner.svg" />
  </g>
  <g transform="translate(570.4,2430.542857142857) ">

    <rect x="0" y="0" width="446.4" height="451.0285714285714" style="fill:#0000ff;stroke-width:5;stroke:black;" />
    <image x="0" y="0" width="446.4" height="451.0285714285714" xlink:href="/home/matthew/games/board/irrigate/bases/corner.svg" />
  </g>
  <g transform="translate(1016.8,2430.542857142857) ">

    <rect x="0" y="0" width="446.4" height="451.0285714285714" style="fill:#00ffff;stroke-width:5;stroke:black;" />
    <image x="0" y="0" width="446.4" height="451.0285714285714" xlink:href="/home/matthew/games/board/irrigate/bases/corner.svg" />
  </g>
  <g transform="translate(1463.1999999999998,2430.542857142857) ">

    <rect x="0" y="0" width="446.4" height="451.0285714285714" style="fill:#ff0000;stroke-width:5;stroke:black;" />
    <image x="0" y="0" width="446.4" height="451.0285714285714" xlink:href="/home/matthew/games/board/irrigate/bases/straight.svg" />
  </g>
  <g transform="translate(1909.6,2430.542857142857) ">

    <rect x="0" y="0" width="446.4" height="451.0285714285714" style="fill:#00ff00;stroke-width:5;stroke:black;" />
    <image x="0" y="0" width="446.4" height="451.0285714285714" xlink:href="/home/matthew/games/board/irrigate/bases/straight.svg" />
  </g>
  <g transform="translate(124,2881.5714285714284) ">

    <rect x="0" y="0" width="446.4" height="451.0285714285714" style="fill:#0000ff;stroke-width:5;stroke:black;" />
    <image x="0" y="0" width="446.4" height="451.0285714285714" xlink:href="/home/matthew/games/board/irrigate/bases/straight.svg" />
  </g>
  <g transform="translate(570.4,2881.5714285714284) ">

    <rect x="0" y="0" width="446.4" height="451.0285714285714" style="fill:#00ffff;stroke-width:5;stroke:black;" />
    <image x="0" y="0" width="446.4" height="451.0285714285714" xlink:href="/home/matthew/games/board/irrigate/bases/straight.svg" />
  </g>
  <g transform="translate(1016.8,2881.5714285714284) ">

    <rect x="0" y="0" width="446.4" height="451.0285714285714" style="fill:#ff0000;stroke-width:5;stroke:black;" />
    <image x="0" y="0" width="446.4" height="451.0285714285714" xlink:href="/home/matthew/games/board/irrigate/bases/tee.svg" />
  </g>
  <g transform="translate(1463.1999999999998,2881.5714285714284) ">

    <rect x="0" y="0" width="446.4" height="451.0285714285714" style="fill:#00ff00;stroke-width:5;stroke:black;" />
    <image x="0" y="0" width="446.4" height="451.0285714285714" xlink:href="/home/matthew/games/board/irrigate/bases/tee.svg" />
  </g>
  <g transform="translate(1909.6,2881.5714285714284) ">

    <rect x="0" y="0" width="446.4" height="451.0285714285714" style="fill:#0000ff;stroke-width:5;stroke:black;" />
    <image x="0" y="0" width="446.4" height="451.0285714285714" xlink:href="/home/matthew/games/board/irrigate/bases/tee.svg" />
  </g>
  <g transform="translate(124,3332.6) ">

    <rect x="0" y="0" width="446.4" height="451.0285714285714" style="fill:#00ffff;stroke-width:5;stroke:black;" />
    <image x="0" y="0" width="446.4" height="451.0285714285714" xlink:href="/home/matthew/games/board/irrigate/bases/tee.svg" />
  </g>
</svg>
